<svg xmlns="http://www.w3.org/2000/svg" width="1200" height="630" viewBox="0 0 1200 630">
  <defs>
    <linearGradient id="g1" x1="0" y1="0" x2="1" y2="1">
      <stop offset="0" stop-color="#1E293B"/>
      <stop offset="1" stop-color="#0F172A"/>
    </linearGradient>
  </defs>
  <rect width="1200" height="630" fill="url(#g1)"/>
  <rect x="0" y="0" width="10" height="630" fill="#6366F1"/>

  <!-- El mismo correo, en los tres grupos de clientes: uno lo deja igual,
       uno invierte a medias, uno lo invierte entero. -->
  <g transform="translate(792,132)">
    <rect x="0" y="0" width="108" height="200" rx="8" fill="#F8FAFC"/>
    <rect x="14" y="16" width="80" height="10" rx="5" fill="#94A3B8"/>
    <rect x="14" y="38" width="60" height="8" rx="4" fill="#CBD5E1"/>
    <rect x="14" y="60" width="80" height="52" rx="6" fill="#6366F1"/>
    <rect x="14" y="126" width="80" height="8" rx="4" fill="#CBD5E1"/>
    <rect x="14" y="146" width="52" height="8" rx="4" fill="#CBD5E1"/>

    <rect x="124" y="0" width="108" height="200" rx="8" fill="#1E293B" stroke="#334155" stroke-width="2"/>
    <rect x="138" y="16" width="80" height="10" rx="5" fill="#E2E8F0"/>
    <rect x="138" y="38" width="60" height="8" rx="4" fill="#64748B"/>
    <rect x="138" y="60" width="80" height="52" rx="6" fill="#6366F1"/>
    <rect x="138" y="126" width="80" height="8" rx="4" fill="#64748B"/>
    <rect x="138" y="146" width="52" height="8" rx="4" fill="#64748B"/>

    <rect x="248" y="0" width="108" height="200" rx="8" fill="#0B1220" stroke="#334155" stroke-width="2"/>
    <rect x="262" y="16" width="80" height="10" rx="5" fill="#E2E8F0"/>
    <rect x="262" y="38" width="60" height="8" rx="4" fill="#64748B"/>
    <rect x="262" y="60" width="80" height="52" rx="6" fill="#9CA3AF"/>
    <rect x="262" y="126" width="80" height="8" rx="4" fill="#64748B"/>
    <rect x="262" y="146" width="52" height="8" rx="4" fill="#64748B"/>
  </g>

  <text x="72" y="150" font-family="Helvetica,Arial,sans-serif" font-size="24" font-weight="700" letter-spacing="4" fill="#38BDF8">USABILIDAD EN EMAIL</text>
  <text x="72" y="262" font-family="Helvetica,Arial,sans-serif" font-size="64" font-weight="700" fill="#F8FAFC">El email que envías</text>
  <text x="72" y="340" font-family="Helvetica,Arial,sans-serif" font-size="64" font-weight="700" fill="#F8FAFC">no es el que leen</text>
  <text x="72" y="566" font-family="Helvetica,Arial,sans-serif" font-size="26" fill="#64748B">codewithgabo.com</text>
</svg>
